# xmcd
#
# Track frame offsets:
#	151
#	12119
#	27945
#	39785
#	57856
#	71215
#	87376
#	97111
#	113432
#	129207
#	139321
#
# Disc length: 2099 seconds
#
# Revision: 1
# Processed by: cddbd v1.5.2PL0 Copyright (c) Steve Scherf et al.
# Submitted via: audiograbber 1.83.01
#
DISCID=8a08310b
DTITLE=Jimmy Martin - Knee Deep In Texas
DYEAR=1998
DGENRE=Country
TTITLE0=That Was A Close One, Wasn't It Baby
TTITLE1=I Keep It Under My Hat
TTITLE2=Knne Deep In Texas
TTITLE3=Sunday Best
TTITLE4=Wish It COul Be That Way Again
TTITLE5=Sweet Memories
TTITLE6=You Can't Put The Bullet Back In The Gun
TTITLE7=A Stronger Hand Than Mine
TTITLE8=I've Got A New Love
TTITLE9=Not Long Distance Yet
TTITLE10=Two Guns In Arizona
EXTD=
EXTT0=
EXTT1=
EXTT2=
EXTT3=
EXTT4=
EXTT5=
EXTT6=
EXTT7=
EXTT8=
EXTT9=
EXTT10=
PLAYORDER=
